<svg id="visual" viewBox="0 0 1920 700" width="1920" height="700" xmlns="http://www.w3.org/2000/svg" xmlns:xlink="http://www.w3.org/1999/xlink" version="1.1"><rect x="0" y="0" width="1920" height="700" fill="#000000"></rect><path d="M0 291L29.2 320.5C58.3 350 116.7 409 174.8 422.5C233 436 291 404 349.2 411.3C407.3 418.7 465.7 465.3 523.8 441.7C582 418 640 324 698.2 318.5C756.3 313 814.7 396 872.8 412.3C931 428.7 989 378.3 1047.2 336.2C1105.3 294 1163.7 260 1221.8 246.3C1280 232.7 1338 239.3 1396.2 256.5C1454.3 273.7 1512.7 301.3 1570.8 306.8C1629 312.3 1687 295.7 1745.2 305.3C1803.3 315 1861.7 351 1890.8 369L1920 387L1920 701L1890.8 701C1861.7 701 1803.3 701 1745.2 701C1687 701 1629 701 1570.8 701C1512.7 701 1454.3 701 1396.2 701C1338 701 1280 701 1221.8 701C1163.7 701 1105.3 701 1047.2 701C989 701 931 701 872.8 701C814.7 701 756.3 701 698.2 701C640 701 582 701 523.8 701C465.7 701 407.3 701 349.2 701C291 701 233 701 174.8 701C116.7 701 58.3 701 29.2 701L0 701Z" fill="#f12711"></path><path d="M0 505L29.2 484C58.3 463 116.7 421 174.8 431.8C233 442.7 291 506.3 349.2 524.3C407.3 542.3 465.7 514.7 523.8 497.2C582 479.7 640 472.3 698.2 453.5C756.3 434.7 814.7 404.3 872.8 402.7C931 401 989 428 1047.2 416C1105.3 404 1163.7 353 1221.8 337.5C1280 322 1338 342 1396.2 358C1454.3 374 1512.7 386 1570.8 421C1629 456 1687 514 1745.2 503.3C1803.3 492.7 1861.7 413.3 1890.8 373.7L1920 334L1920 701L1890.8 701C1861.7 701 1803.3 701 1745.2 701C1687 701 1629 701 1570.8 701C1512.7 701 1454.3 701 1396.2 701C1338 701 1280 701 1221.8 701C1163.7 701 1105.3 701 1047.2 701C989 701 931 701 872.8 701C814.7 701 756.3 701 698.2 701C640 701 582 701 523.8 701C465.7 701 407.3 701 349.2 701C291 701 233 701 174.8 701C116.7 701 58.3 701 29.2 701L0 701Z" fill="#ff518c"></path><path d="M0 552L29.2 551.2C58.3 550.3 116.7 548.7 174.8 530C233 511.3 291 475.7 349.2 487.2C407.3 498.7 465.7 557.3 523.8 559.5C582 561.7 640 507.3 698.2 496.7C756.3 486 814.7 519 872.8 541.7C931 564.3 989 576.7 1047.2 563.3C1105.3 550 1163.7 511 1221.8 480.8C1280 450.7 1338 429.3 1396.2 424C1454.3 418.7 1512.7 429.3 1570.8 433.7C1629 438 1687 436 1745.2 429.3C1803.3 422.7 1861.7 411.3 1890.8 405.7L1920 400L1920 701L1890.8 701C1861.7 701 1803.3 701 1745.2 701C1687 701 1629 701 1570.8 701C1512.7 701 1454.3 701 1396.2 701C1338 701 1280 701 1221.8 701C1163.7 701 1105.3 701 1047.2 701C989 701 931 701 872.8 701C814.7 701 756.3 701 698.2 701C640 701 582 701 523.8 701C465.7 701 407.3 701 349.2 701C291 701 233 701 174.8 701C116.7 701 58.3 701 29.2 701L0 701Z" fill="#ea93dc"></path><path d="M0 544L29.2 549C58.3 554 116.7 564 174.8 573.3C233 582.7 291 591.3 349.2 573.8C407.3 556.3 465.7 512.7 523.8 492.3C582 472 640 475 698.2 488.2C756.3 501.3 814.7 524.7 872.8 529.3C931 534 989 520 1047.2 529.7C1105.3 539.3 1163.7 572.7 1221.8 587.8C1280 603 1338 600 1396.2 608.3C1454.3 616.7 1512.7 636.3 1570.8 627.5C1629 618.7 1687 581.3 1745.2 577.8C1803.3 574.3 1861.7 604.7 1890.8 619.8L1920 635L1920 701L1890.8 701C1861.7 701 1803.3 701 1745.2 701C1687 701 1629 701 1570.8 701C1512.7 701 1454.3 701 1396.2 701C1338 701 1280 701 1221.8 701C1163.7 701 1105.3 701 1047.2 701C989 701 931 701 872.8 701C814.7 701 756.3 701 698.2 701C640 701 582 701 523.8 701C465.7 701 407.3 701 349.2 701C291 701 233 701 174.8 701C116.7 701 58.3 701 29.2 701L0 701Z" fill="#cdc6f8"></path><path d="M0 691L29.2 686.7C58.3 682.3 116.7 673.7 174.8 659.5C233 645.3 291 625.7 349.2 628.2C407.3 630.7 465.7 655.3 523.8 652.3C582 649.3 640 618.7 698.2 599.5C756.3 580.3 814.7 572.7 872.8 578.8C931 585 989 605 1047.2 618.2C1105.3 631.3 1163.7 637.7 1221.8 624.2C1280 610.7 1338 577.3 1396.2 561.8C1454.3 546.3 1512.7 548.7 1570.8 563.2C1629 577.7 1687 604.3 1745.2 622.2C1803.3 640 1861.7 649 1890.8 653.5L1920 658L1920 701L1890.8 701C1861.7 701 1803.3 701 1745.2 701C1687 701 1629 701 1570.8 701C1512.7 701 1454.3 701 1396.2 701C1338 701 1280 701 1221.8 701C1163.7 701 1105.3 701 1047.2 701C989 701 931 701 872.8 701C814.7 701 756.3 701 698.2 701C640 701 582 701 523.8 701C465.7 701 407.3 701 349.2 701C291 701 233 701 174.8 701C116.7 701 58.3 701 29.2 701L0 701Z" fill="#e2e8f0"></path></svg>