<svg width="24" height="24" xmlns="http://www.w3.org/2000/svg" fill-rule="evenodd" clip-rule="evenodd"><path d="M18 24h-12c-1.104 0-2-.896-2-2v-20c0-1.104.896-2 2-2h12c1.104 0 2 .896 2 2v20c0 1.104-.896 2-2 2zm1-5.083h-14v3.083c0 .552.449 1 1 1h12c.552 0 1-.448 1-1v-3.083zm-7 3c-.553 0-1-.448-1-1s.447-1 1-1c.552 0 .999.448.999 1s-.447 1-.999 1zm7-17h-14v13h14v-13zm-1-3.917h-12c-.551 0-1 .449-1 1v1.917h14v-1.917c0-.551-.448-1-1-1zm-4.5 1.917h-3c-.276 0-.5-.224-.5-.5s.224-.5.5-.5h3c.276 0 .5.224.5.5s-.224.5-.5.5z"/></svg>